<svg width="580" height="74" viewBox="0 0 580 74" fill="none" xmlns="http://www.w3.org/2000/svg">
<path d="M25.1406 73.0742C10.0039 73.0742 0.824219 64.1875 0.824219 53.25C0.824219 45.2422 5.75586 40.4082 13.1289 35.3789C10.0039 31.082 7.26953 25.8086 7.26953 19.6562C7.26953 8.91406 15.4727 0.222656 27.7773 0.222656C39.5938 0.222656 46.8691 8.2793 46.918 17.9961C46.8691 24.5879 43.5488 30.3496 37.543 34.5977L34.0273 37.1367L43.4023 47.5371C45.3555 44.0703 46.5273 40.0176 46.5273 35.4766H61.2734C61.2246 44.7051 59.125 53.2988 54.3398 59.6465L65.4727 72H46.918L43.1582 67.9961C37.5918 71.707 31.1465 73.0742 25.1406 73.0742ZM18.5 51.8828C18.5 56.082 21.5762 58.6211 26.5078 58.6211C28.6562 58.6211 30.8535 58.1328 33.002 57.2051L22.1133 45.584C20.0137 47.1953 18.5 49.0996 18.5 51.8828ZM22.3086 19.8516C22.3574 22.293 23.6758 24.7344 25.8242 27.5176L28.8516 25.6133C32.0742 23.5625 33.0996 21.1699 33.1484 19.2656C33.0996 16.9707 31.3906 14.7734 27.7773 14.7734C24.457 14.8223 22.3574 16.8242 22.3086 19.8516ZM118.402 72H91.5469V1.29688H118.207C139.984 1.29688 153.559 14.5293 153.559 36.6484C153.559 58.7188 139.984 72 118.402 72ZM110.102 56.1797H117.719C128.607 56.1797 134.809 51.541 134.809 36.6484C134.809 21.707 128.607 17.1172 117.23 17.1172H110.102V56.1797ZM162.641 72V1.29688H213.129V16.3359H181.195V29.1289H210.492V44.168H181.195V56.9609H213.031V72H162.641ZM260.98 23.1719C260.59 18.4355 257.465 15.6035 251.117 15.6523C245.014 15.6035 242.182 18.0449 242.133 21.3164C241.986 24.9785 245.307 26.9805 251.898 28.3477L257.758 29.7148C272.943 32.9375 279.73 40.3105 279.828 51.1992C279.73 65.0664 269.086 72.8301 251.215 72.8789C232.953 72.8301 221.088 64.9199 220.941 47.4883H238.715C239.008 54.0801 243.549 57.5469 250.922 57.5469C257.318 57.5469 260.736 54.959 260.785 51.1992C260.736 47.7812 257.807 45.7793 249.945 44.0703L242.816 42.5078C230.365 39.7734 222.748 33.6211 222.797 22.6836C222.699 9.30469 234.516 0.320312 251.117 0.320312C268.061 0.320312 278.754 9.45117 278.852 23.1719H260.98ZM306 1.29688V72H287.445V1.29688H306ZM361.566 24.5391C360.297 19.4609 356.049 16.5312 349.848 16.5312C339.984 16.5312 334.223 23.9043 334.223 36.5508C334.223 49.2461 339.594 56.7168 349.75 56.7656C358.539 56.7168 363.129 52.5664 363.227 46.0234H350.141V32.7422H381.195V42.4102C381.195 61.6484 368.012 72.9766 349.555 72.9766C329.047 72.9766 315.131 59.1582 315.082 36.7461C315.131 13.5039 330.414 0.320312 349.457 0.320312C366.059 0.320312 378.852 10.3789 380.414 24.5391H361.566ZM451.312 1.29688V72H435.785L409.516 33.8164H409.027V72H390.473V1.29688H406.293L432.172 39.2852H432.758V1.29688H451.312ZM460.883 72V1.29688H511.371V16.3359H479.438V29.1289H508.734V44.168H479.438V56.9609H511.273V72H460.883ZM521.137 72V1.29688H551.215C567.035 1.29688 577.387 10.2812 577.387 25.2227C577.387 34.9883 572.895 41.873 565.277 45.4863L579.73 72H559.516L546.967 48.4648H539.691V72H521.137ZM539.691 33.9141H546.918C553.9 33.9141 558.002 31.375 557.953 25.2227C558.002 18.9727 553.9 16.1895 546.918 16.1406H539.691V33.9141Z" fill="black"/>
</svg>
