<svg width="687" height="82" viewBox="0 0 687 82" fill="none" xmlns="http://www.w3.org/2000/svg">
<path d="M10.5781 8.4375V31.0938H0.890625V8.4375H10.5781ZM15.2656 31.0938V8.4375H24.9531V31.0938H15.2656ZM93.7031 0.46875V44.7656H81.6719V0.46875H93.7031ZM29.0938 26.4062C38.2344 26.4062 53.6641 26.2109 64.9531 24.4531L65.7344 32.7344C62.1406 33.5938 58.1562 34.1797 54.1719 34.6094V44.2188H42.2188V35.4297C37.7266 35.5859 33.5469 35.625 30.1875 35.625L29.0938 26.4062ZM31.5938 13.75C31.6328 7.10938 38.0781 2.96875 47.6094 2.96875C57.0625 2.96875 63.5859 7.10938 63.5469 13.75C63.5859 20.3516 57.0625 24.7266 47.6094 24.7656C38.0781 24.7266 31.6328 20.3516 31.5938 13.75ZM40.1875 72.1094V46.875H52.6094V50.3906H81.125V46.875H93.7031V72.1094H40.1875ZM42.9219 13.75C42.9219 15.6641 44.5625 16.1328 47.6094 16.1719C50.5781 16.1328 52.4922 15.6641 52.4531 13.75C52.4922 11.9531 50.5781 11.4844 47.6094 11.4844C44.5625 11.4844 42.9219 11.9531 42.9219 13.75ZM52.6094 62.5H81.125V59.8438H52.6094V62.5ZM57.8438 43.5156V35.3125H67.375V1.71875H79.1719V44.7656H67.375V43.5156H57.8438ZM126.906 14.9219C126.828 28.0078 130.461 41.0156 142.922 46.9531L135.422 56.9531C128.078 53.4375 123.391 47.3047 120.578 39.7266C117.531 47.9297 112.414 54.5312 104.484 58.2812L96.9062 48.125C110.188 42.2656 114.289 28.4766 114.25 14.9219V5.625H126.906V14.9219ZM143.859 72.7344V0.46875H156.438V27.4219H166.203V37.9688H156.438V72.7344H143.859ZM228.938 0.46875V72.9688H216.281V0.46875H228.938ZM169.641 31.3281C169.602 15.3516 177.961 5.27344 189.25 5.3125C200.266 5.27344 208.547 15.3516 208.547 31.3281C208.547 47.5391 200.266 57.5781 189.25 57.5781C177.961 57.5781 169.602 47.5391 169.641 31.3281ZM181.75 31.3281C181.711 41.4844 184.641 46.1328 189.25 46.0938C193.586 46.1328 196.477 41.4844 196.516 31.3281C196.477 21.3281 193.586 16.6016 189.25 16.6406C184.641 16.6016 181.711 21.3281 181.75 31.3281ZM296.203 36.7969V46.4844H244.406V5.23438H295.812V15.3125H257.141V20.9375H294.016V30.625H257.141V36.7969H296.203ZM237.062 65V54.9219H303.078V65H237.062ZM372.141 32.1094V41.25H306.203V32.1094H372.141ZM313.469 72.2656V53.9062H352.062V51.875H313.469V43.4375H364.484V61.6406H325.891V63.9844H366.438V72.2656H313.469ZM314.094 9.60938V1.32812H364.484V19.5312H326.594V21.875H365.734V30.0781H314.172V11.7969H351.984V9.60938H314.094ZM434.016 4.21875V14.1406H420.891C421.555 21.3281 425.734 28.7891 436.984 32.2656L430.656 41.9531C422.922 39.5703 417.727 34.8828 414.602 29.0625C411.359 35.4297 405.969 40.5078 397.766 43.0469L391.203 33.4375C402.766 29.8828 407.18 21.8359 407.961 14.1406H394.484V4.21875H434.016ZM401.125 56.6406V46.7188H450.578V72.7344H438V56.6406H401.125ZM438 44.1406V0.46875H450.578V17.0312H459.562V27.3438H450.578V44.1406H438ZM527.609 32.8906V42.8125H462.141V32.8906H485.031V20.1562H497.453V32.8906H527.609ZM468.625 57.6562V47.7344H519.172V72.7344H506.594V57.6562H468.625ZM469.25 13.5938V3.90625H520.109V8.82812C520.109 14.1016 520.109 21.0938 518.391 30L505.812 28.9062C507.062 22.7344 507.414 17.8125 507.531 13.5938H469.25ZM588.703 0.46875V27.8906H598.469V38.125H588.703V72.7344H576.281V0.46875H588.703ZM530.656 20.7031V10.7812H545.578V1.79688H558.078V10.7812H572.766V20.7031H530.656ZM532.844 41.0938C532.805 30.8203 540.891 23.4766 551.828 23.5156C562.492 23.4766 570.695 30.8203 570.734 41.0938C570.695 51.4062 562.492 58.7109 551.828 58.75C540.891 58.7109 532.805 51.4062 532.844 41.0938ZM544.875 41.0938C544.836 46.1328 547.766 48.5938 551.828 48.5938C555.812 48.5938 558.703 46.1328 558.703 41.0938C558.703 36.25 555.812 33.6328 551.828 33.5938C547.766 33.6328 544.836 36.25 544.875 41.0938ZM660.734 6.09375V12.7344C660.695 21.875 660.695 32.1875 657.688 48.0469L645.031 46.875C647.727 33.9453 648.039 24.1016 648.078 15.9375H606.828V6.09375H660.734ZM600.188 64.7656V54.6875H622.375V30.5469H634.797V54.6875H666.125V64.7656H600.188ZM686.672 58.9062L679.406 81.7969H669.484L673.078 58.9062H686.672Z" fill="#2B2B2B"/>
</svg>
