<svg width="500" height="500" viewBox="0 0 500 500" fill="none" xmlns="http://www.w3.org/2000/svg">
<rect x="0.92166" y="0.92166" width="498.157" height="498.157" rx="14.7429" fill="url(#paint0_linear_304_339)" fill-opacity="0.9" stroke="url(#paint1_linear_304_339)" stroke-width="1.84332"/>
<path d="M116.869 280.197C116.454 275.857 113.55 272.985 108.636 272.985C102.221 272.985 98.6154 277.868 98.6154 286.133C98.6154 294.812 102.317 299.248 108.572 299.28C113.263 299.248 116.198 296.759 116.869 292.643L129.186 292.77C128.516 300.684 121.623 309.875 108.316 309.875C95.6477 309.875 86.1382 301.45 86.1062 286.133C86.1382 270.751 95.903 262.391 108.316 262.391C119.836 262.391 128.165 268.837 129.186 280.197H116.869ZM145.142 309.236H131.994L147.376 263.029H163.906L179.223 309.236H166.139L163.363 300.174H147.886L145.142 309.236ZM150.694 290.983H160.555L155.8 275.474H155.417L150.694 290.983ZM183.818 309.236V263.029H216.049V272.858H195.944V281.218H214.006V291.047H195.944V309.236H183.818ZM220.899 309.236V263.029H253.895V272.858H233.025V281.218H252.172V291.047H233.025V299.408H253.831V309.236H220.899ZM286.636 263.029V309.236H274.51V263.029H286.636ZM332.652 263.029V309.236H322.504L305.336 284.282H305.017V309.236H292.891V263.029H303.23L320.143 287.856H320.526V263.029H332.652ZM117.156 358.197C116.741 353.857 113.837 350.985 108.923 350.985C102.509 350.985 98.9026 355.868 98.9026 364.133C98.9026 372.812 102.604 377.248 108.859 377.28C113.55 377.248 116.486 374.759 117.156 370.643L129.474 370.77C128.803 378.684 121.911 387.875 108.604 387.875C95.9349 387.875 86.4254 379.45 86.3934 364.133C86.4254 348.751 96.1902 340.391 108.604 340.391C120.124 340.391 128.452 346.837 129.474 358.197H117.156ZM179.766 364.133C179.766 379.514 169.905 387.875 157.428 387.875C144.823 387.875 135.058 379.418 135.026 364.133C135.058 348.751 144.823 340.391 157.428 340.391C169.905 340.391 179.766 348.751 179.766 364.133ZM147.535 364.133C147.535 372.621 151.045 377.248 157.428 377.28C163.746 377.248 167.288 372.621 167.256 364.133C167.288 355.612 163.746 350.985 157.428 350.985C151.045 350.985 147.535 355.612 147.535 364.133ZM185.701 387.236V341.029H217.931V350.858H197.827V359.218H215.889V369.047H197.827V387.236H185.701ZM222.782 387.236V341.029H255.012V350.858H234.908V359.218H252.97V369.047H234.908V387.236H222.782ZM259.863 387.236V341.029H292.859V350.858H271.989V359.218H291.135V369.047H271.989V377.408H292.795V387.236H259.863ZM299.241 387.236V341.029H332.237V350.858H311.367V359.218H330.514V369.047H311.367V377.408H332.173V387.236H299.241Z" fill="white"/>
<path d="M77.9277 222.9L226.223 78.542L374.519 222.9V420.356H226.223" stroke="white" stroke-width="8.71388"/>
<path d="M375.09 267.149C388.347 245.947 429.067 236.175 447.817 267.149C477.539 316.248 410.317 370.209 375.09 389.936" stroke="white" stroke-width="8.71388"/>
<path d="M55.5992 29.078C55.2418 27.376 53.7867 26.457 52.1613 26.457C49.9318 26.457 48.2044 28.1759 48.1958 31.3585C48.2044 34.5326 49.9318 36.2516 52.1613 36.2601C53.7867 36.2516 55.2333 35.3411 55.5992 33.6562H57.131C56.6885 36.175 54.6632 37.6897 52.1613 37.6897C48.9958 37.6897 46.7067 35.256 46.7152 31.3585C46.7067 27.4611 48.9958 25.0274 52.1613 25.0274C54.6547 25.0274 56.6715 26.5166 57.131 29.078H55.5992ZM58.6457 34.8986C58.6457 32.7797 60.5178 32.2946 62.1176 32.1755C62.7133 32.1329 64.2025 32.0478 64.6195 32.0393V31.2905C64.6195 30.1161 63.9217 29.4354 62.5261 29.4354C61.3603 29.4354 60.654 29.9715 60.4497 30.6778H58.918C59.1052 29.1886 60.5519 28.1589 62.5942 28.1589C63.8025 28.1589 66.0746 28.5163 66.0661 31.4266V37.5195H64.6195V36.2601H64.5514C64.245 36.8813 63.4026 37.7323 61.7943 37.7408C60.0413 37.7323 58.6457 36.7026 58.6457 34.8986ZM60.1094 34.9666C60.1179 35.9452 60.9263 36.4388 62.0496 36.4303C63.7004 36.4388 64.6195 35.3326 64.6195 34.1667V33.2392C64.1855 33.2647 62.7303 33.3753 62.2878 33.4009C60.9603 33.486 60.1179 33.954 60.1094 34.9666ZM72.5505 28.2781V29.5034H70.5081V37.5195H69.0275V29.5034H67.5468V28.2781H69.0275V27.0186C69.036 25.5209 70.0316 24.6189 71.6655 24.6189C72.0229 24.6189 72.4483 24.6615 72.7547 24.721V26.0315C72.4398 25.9805 72.176 25.9634 71.9888 25.9634C70.9592 25.9634 70.4996 26.3889 70.5081 27.342V28.2781H72.5505ZM78.4221 28.2781V29.5034H76.3798V37.5195H74.8991V29.5034H73.4184V28.2781H74.8991V27.0186C74.9076 25.5209 75.9033 24.6189 77.5371 24.6189C77.8945 24.6189 78.32 24.6615 78.6263 24.721V26.0315C78.3115 25.9805 78.0477 25.9634 77.8605 25.9634C76.8308 25.9634 76.3713 26.3889 76.3798 27.342V28.2781H78.4221ZM83.647 37.7067C80.975 37.7153 79.3241 35.8091 79.3241 32.9754C79.3241 30.1332 81.0005 28.1589 83.5109 28.1589C85.4511 28.1589 87.5019 29.3503 87.4934 32.7711V33.3838H80.7878C80.8644 35.3411 82.0047 36.4133 83.647 36.4133C84.7533 36.4133 85.4511 35.9282 85.7915 35.3581H87.3572C86.9232 36.7622 85.5532 37.7153 83.647 37.7067ZM80.7963 32.1414H86.0127C86.0042 30.6012 85.0341 29.4524 83.5109 29.4524C81.9111 29.4524 80.8984 30.7118 80.7963 32.1414ZM89.3996 37.5195V28.2781H90.8632V37.5195H89.3996ZM89.1102 25.7762C89.1017 25.2316 89.5697 24.7976 90.1314 24.8061C90.693 24.7976 91.1611 25.2316 91.1696 25.7762C91.1611 26.3123 90.693 26.7463 90.1314 26.7463C89.5697 26.7463 89.1017 26.3123 89.1102 25.7762ZM94.6585 31.9712V37.5195H93.1949V28.2781H94.6075V29.7247H94.7266C95.1606 28.7801 96.0286 28.1589 97.4327 28.1589C99.3048 28.1589 100.556 29.2992 100.547 31.6479V37.5195H99.0835V31.75C99.0835 30.3204 98.3006 29.4694 96.9902 29.4694C95.6456 29.4694 94.6585 30.3714 94.6585 31.9712ZM106.776 37.7067C104.104 37.7153 102.453 35.8091 102.453 32.9754C102.453 30.1332 104.13 28.1589 106.64 28.1589C108.58 28.1589 110.631 29.3503 110.623 32.7711V33.3838H103.917C103.994 35.3411 105.134 36.4133 106.776 36.4133C107.883 36.4133 108.58 35.9282 108.921 35.3581H110.486C110.052 36.7622 108.682 37.7153 106.776 37.7067ZM103.926 32.1414H109.142C109.133 30.6012 108.163 29.4524 106.64 29.4524C105.04 29.4524 104.028 30.7118 103.926 32.1414ZM125.497 29.078C125.14 27.376 123.685 26.457 122.06 26.457C119.83 26.457 118.103 28.1759 118.094 31.3585C118.103 34.5326 119.83 36.2516 122.06 36.2601C123.685 36.2516 125.132 35.3411 125.497 33.6562H127.029C126.587 36.175 124.561 37.6897 122.06 37.6897C118.894 37.6897 116.605 35.256 116.613 31.3585C116.605 27.4611 118.894 25.0274 122.06 25.0274C124.553 25.0274 126.57 26.5166 127.029 29.078H125.497ZM132.765 37.7067C130.246 37.7153 128.544 35.8091 128.544 32.9413C128.544 30.0566 130.246 28.1589 132.765 28.1589C135.275 28.1589 136.96 30.0566 136.951 32.9413C136.96 35.8091 135.275 37.7153 132.765 37.7067ZM130.008 32.9413C130.016 34.7879 130.884 36.4133 132.765 36.4133C134.628 36.4133 135.488 34.7879 135.488 32.9413C135.488 31.1033 134.628 29.4524 132.765 29.4524C130.884 29.4524 130.016 31.1033 130.008 32.9413ZM143.01 28.2781V29.5034H140.968V37.5195H139.487V29.5034H138.007V28.2781H139.487V27.0186C139.496 25.5209 140.491 24.6189 142.125 24.6189C142.483 24.6189 142.908 24.6615 143.215 24.721V26.0315C142.9 25.9805 142.636 25.9634 142.449 25.9634C141.419 25.9634 140.959 26.3889 140.968 27.342V28.2781H143.01ZM148.882 28.2781V29.5034H146.84V37.5195H145.359V29.5034H143.878V28.2781H145.359V27.0186C145.367 25.5209 146.363 24.6189 147.997 24.6189C148.354 24.6189 148.78 24.6615 149.086 24.721V26.0315C148.771 25.9805 148.508 25.9634 148.32 25.9634C147.291 25.9634 146.831 26.3889 146.84 27.342V28.2781H148.882ZM154.107 37.7067C151.435 37.7153 149.784 35.8091 149.784 32.9754C149.784 30.1332 151.46 28.1589 153.971 28.1589C155.911 28.1589 157.962 29.3503 157.953 32.7711V33.3838H151.248C151.324 35.3411 152.465 36.4133 154.107 36.4133C155.213 36.4133 155.911 35.9282 156.251 35.3581H157.817C157.383 36.7622 156.013 37.7153 154.107 37.7067ZM151.256 32.1414H156.473C156.464 30.6012 155.494 29.4524 153.971 29.4524C152.371 29.4524 151.358 30.7118 151.256 32.1414ZM163.74 37.7067C161.068 37.7153 159.417 35.8091 159.417 32.9754C159.417 30.1332 161.093 28.1589 163.604 28.1589C165.544 28.1589 167.595 29.3503 167.586 32.7711V33.3838H160.881C160.957 35.3411 162.097 36.4133 163.74 36.4133C164.846 36.4133 165.544 35.9282 165.884 35.3581H167.45C167.016 36.7622 165.646 37.7153 163.74 37.7067ZM160.889 32.1414H166.106C166.097 30.6012 165.127 29.4524 163.604 29.4524C162.004 29.4524 160.991 30.7118 160.889 32.1414Z" fill="white"/>
<defs>
<linearGradient id="paint0_linear_304_339" x1="0" y1="0" x2="114.203" y2="563.009" gradientUnits="userSpaceOnUse">
<stop stop-color="#C9D9F1"/>
<stop offset="1" stop-color="#29C5FF"/>
</linearGradient>
<linearGradient id="paint1_linear_304_339" x1="13.3333" y1="5.84976" x2="122.575" y2="566.639" gradientUnits="userSpaceOnUse">
<stop stop-color="white"/>
<stop offset="1" stop-color="white" stop-opacity="0"/>
</linearGradient>
</defs>
</svg>
