<svg width="673" height="73" viewBox="0 0 673 73" fill="none" xmlns="http://www.w3.org/2000/svg">
<path d="M0.925781 72V1.29688H19.4805V29.1289H45.5547V1.29688H64.207V72H45.5547V44.168H19.4805V72H0.925781ZM91.1602 72H71.043L94.5781 1.29688H119.871L143.309 72H123.289L119.041 58.1328H95.3594L91.1602 72ZM99.6562 44.0703H114.744L107.469 20.3398H106.883L99.6562 44.0703ZM211.18 1.29688V72H195.652L169.383 33.8164H168.895V72H150.34V1.29688H166.16L192.039 39.2852H192.625V1.29688H211.18ZM280.613 23.1719C280.223 18.4355 277.098 15.6035 270.75 15.6523C264.646 15.6035 261.814 18.0449 261.766 21.3164C261.619 24.9785 264.939 26.9805 271.531 28.3477L277.391 29.7148C292.576 32.9375 299.363 40.3105 299.461 51.1992C299.363 65.0664 288.719 72.8301 270.848 72.8789C252.586 72.8301 240.721 64.9199 240.574 47.4883H258.348C258.641 54.0801 263.182 57.5469 270.555 57.5469C276.951 57.5469 280.369 54.959 280.418 51.1992C280.369 47.7812 277.439 45.7793 269.578 44.0703L262.449 42.5078C249.998 39.7734 242.381 33.6211 242.43 22.6836C242.332 9.30469 254.148 0.320312 270.75 0.320312C287.693 0.320312 298.387 9.45117 298.484 23.1719H280.613ZM321.922 72H301.805L325.34 1.29688H350.633L374.07 72H354.051L349.803 58.1328H326.121L321.922 72ZM330.418 44.0703H345.506L338.23 20.3398H337.645L330.418 44.0703ZM441.941 1.29688V72H426.414L400.145 33.8164H399.656V72H381.102V1.29688H396.922L422.801 39.2852H423.387V1.29688H441.941ZM497.508 24.5391C496.238 19.4609 491.99 16.5312 485.789 16.5312C475.926 16.5312 470.164 23.9043 470.164 36.5508C470.164 49.2461 475.535 56.7168 485.691 56.7656C494.48 56.7168 499.07 52.5664 499.168 46.0234H486.082V32.7422H517.137V42.4102C517.137 61.6484 503.953 72.9766 485.496 72.9766C464.988 72.9766 451.072 59.1582 451.023 36.7461C451.072 13.5039 466.355 0.320312 485.398 0.320312C502 0.320312 514.793 10.3789 516.355 24.5391H497.508ZM555.418 1.29688H573.777V49.832C573.68 63.6992 562.791 72.9766 547.312 72.9766C533.836 72.9766 522.801 66.1895 522.898 50.2227H541.453C541.648 55.5938 544.139 58.4746 548.484 58.4258C552.928 58.4746 555.32 55.4961 555.418 49.832V1.29688ZM601.805 1.29688V72H583.25V1.29688H601.805ZM672.215 1.29688V72H656.688L630.418 33.8164H629.93V72H611.375V1.29688H627.195L653.074 39.2852H653.66V1.29688H672.215Z" fill="black"/>
</svg>
