<svg width="634" height="73" viewBox="0 0 634 73" fill="none" xmlns="http://www.w3.org/2000/svg">
<path d="M57.6562 0.46875V72.9688H45V0.46875H57.6562ZM0.859375 56.1719V6.5625H36.4062V16.6406H13.3594V45.7031C25.3906 45.625 32.6172 45.3516 40.7031 43.9062L41.7188 54.0625C32.6172 55.9766 23.5938 56.2109 7.34375 56.1719H0.859375ZM93.9062 18.5938C93.8281 29.2969 98.0859 41.9531 110.859 47.7344L103.984 57.5C96.1719 54.0625 90.9375 47.5391 87.7734 39.7656C84.6484 48.4375 79.2578 55.6641 71.0156 59.375L63.8281 49.5312C76.875 43.5547 81.1719 30.3125 81.1719 18.5938V17.3438H66.875V7.1875H107.344V17.3438H93.9062V18.5938ZM110.859 72.7344V0.46875H123.438V27.0312H133.203V37.4219H123.438V72.7344H110.859ZM195.859 0.625V51.9531H183.281V0.625H195.859ZM135.703 23.4375C135.625 12.7344 144.648 4.88281 155.938 4.92188C167.188 4.88281 176.211 12.7344 176.172 23.4375C176.211 34.3359 167.188 42.0703 155.938 42.1094C144.648 42.0703 135.625 34.3359 135.703 23.4375ZM146.406 71.7188V46.7969H159.062V61.7188H197.578V71.7188H146.406ZM147.891 23.4375C147.852 28.7109 151.328 31.2109 155.938 31.25C160.312 31.2109 163.75 28.7109 163.75 23.4375C163.75 18.3594 160.312 15.7422 155.938 15.7812C151.328 15.7422 147.852 18.3594 147.891 23.4375ZM237.031 3.59375C252.344 3.59375 264.688 12.0703 264.688 24.9219C264.688 37.9297 252.344 46.3672 237.031 46.4062C221.602 46.3672 209.414 37.9297 209.453 24.9219C209.414 12.0703 221.602 3.59375 237.031 3.59375ZM204.062 64.5312V54.4531H270.078V64.5312H204.062ZM221.641 24.9219C221.641 32.2266 228.008 36.1328 237.031 36.1719C245.938 36.1328 252.188 32.2266 252.266 24.9219C252.188 17.7734 245.938 13.6719 237.031 13.6719C228.008 13.6719 221.641 17.7734 221.641 24.9219ZM339.219 55.1562V65.3125H273.203V55.1562H299.922V45.9375H280.391V20.3906H319.688V14.7656H280.312V4.76562H332.109V30.0781H292.969V35.8594H333.75V45.9375H312.344V55.1562H339.219ZM421.25 0.46875V53.3594H408.75V37.5781H401.719V27.3438H408.75V22.5H401.719V12.5781H408.75V0.46875H421.25ZM359.688 35.9375H366.25V15.1562H361.406V5.23438H399.922V15.1562H394.922V34.9219C396.719 34.8047 398.438 34.6484 400.156 34.4531L400.703 43.5156C387.5 45.6641 372.109 46.0547 360.859 46.0156L359.688 35.9375ZM372.266 71.7188V49.6875H384.922V61.7188H422.812V71.7188H372.266ZM378.359 35.7422L382.969 35.625V15.1562H378.359V35.7422ZM494.609 32.8906V42.8125H429.141V32.8906H452.031V20.1562H464.453V32.8906H494.609ZM435.625 57.6562V47.7344H486.172V72.7344H473.594V57.6562H435.625ZM436.25 13.5938V3.90625H487.109V8.82812C487.109 14.1016 487.109 21.0938 485.391 30L472.812 28.9062C474.062 22.7344 474.414 17.8125 474.531 13.5938H436.25ZM555.703 0.46875V27.8906H565.469V38.125H555.703V72.7344H543.281V0.46875H555.703ZM497.656 20.7031V10.7812H512.578V1.79688H525.078V10.7812H539.766V20.7031H497.656ZM499.844 41.0938C499.805 30.8203 507.891 23.4766 518.828 23.5156C529.492 23.4766 537.695 30.8203 537.734 41.0938C537.695 51.4062 529.492 58.7109 518.828 58.75C507.891 58.7109 499.805 51.4062 499.844 41.0938ZM511.875 41.0938C511.836 46.1328 514.766 48.5938 518.828 48.5938C522.812 48.5938 525.703 46.1328 525.703 41.0938C525.703 36.25 522.812 33.6328 518.828 33.5938C514.766 33.6328 511.836 36.25 511.875 41.0938ZM626.016 18.8281V28.5156H574.922V3.04688H587.422V18.8281H626.016ZM567.188 44.6094V34.9219H633.125V44.6094H567.188ZM574.062 71.3281V49.6094H586.719V61.3281H626.484V71.3281H574.062Z" fill="#2B2B2B"/>
</svg>
