<svg width="1223" height="82" viewBox="0 0 1223 82" fill="none" xmlns="http://www.w3.org/2000/svg">
<path d="M64.7031 0.46875V44.7656H52.6719V0.46875H64.7031ZM0.09375 26.4062C9.23438 26.4062 24.6641 26.2109 35.9531 24.4531L36.7344 32.7344C33.1406 33.5938 29.1562 34.1797 25.1719 34.6094V44.2188H13.2188V35.4297C8.72656 35.5859 4.54688 35.625 1.1875 35.625L0.09375 26.4062ZM2.59375 13.75C2.63281 7.10938 9.07812 2.96875 18.6094 2.96875C28.0625 2.96875 34.5859 7.10938 34.5469 13.75C34.5859 20.3516 28.0625 24.7266 18.6094 24.7656C9.07812 24.7266 2.63281 20.3516 2.59375 13.75ZM11.1875 72.1094V46.875H23.6094V50.3906H52.125V46.875H64.7031V72.1094H11.1875ZM13.9219 13.75C13.9219 15.6641 15.5625 16.1328 18.6094 16.1719C21.5781 16.1328 23.4922 15.6641 23.4531 13.75C23.4922 11.9531 21.5781 11.4844 18.6094 11.4844C15.5625 11.4844 13.9219 11.9531 13.9219 13.75ZM23.6094 62.5H52.125V59.8438H23.6094V62.5ZM28.8438 43.5156V35.3125H38.375V1.71875H50.1719V44.7656H38.375V43.5156H28.8438ZM129.156 6.09375V16.0938H122.906V46.0938C125.523 45.8594 128.141 45.625 130.641 45.3125L131.344 54.2188C116.773 56.9922 100.367 57.1875 88.1406 57.1875L87.125 47.1094C89.3516 47.1094 91.6953 47.0703 94.1562 47.0703V16.0938H88.9219V6.09375H129.156ZM106.422 46.875L110.953 46.7578V16.0938H106.422V46.875ZM127.281 36.0938V26.25H136.422V0.46875H148.844V72.7344H136.422V36.0938H127.281ZM176.812 1.71875V5.54688H201.5V1.71875H213.922V26.25H164.547V1.71875H176.812ZM156.344 38.4375V28.75H222.281V38.4375H156.344ZM163.688 72.4219V52.2656H202.125V50.1562H163.766V41.1719H214.469V60.7812H175.953V63.2031H216.188V72.4219H163.688ZM176.812 17.0312H201.5V14.375H176.812V17.0312ZM286.578 0.46875V72.9688H274.078V0.46875H286.578ZM229.156 56.4062V25.625H251.109V16.1719H229.156V6.17188H263.922V35.3906H242.125V46.2109C252.438 46.0938 260.914 45.4688 270.094 43.9062L271.109 53.9844C260.172 56.0547 249.625 56.4453 235.953 56.4062H229.156ZM356.266 0.46875V72.9688H343.609V41.6406H331.891V31.3281H343.609V24.2969H331.891V14.2188H343.609V0.46875H356.266ZM292.984 48.5156C306.5 42.6562 310.367 28.6719 310.406 14.9219V5.625H323.219V14.9219C323.18 29.0234 326.773 42.4609 339.781 48.0469L332.125 58.0469C324.391 54.375 319.547 47.9688 316.695 39.9219C313.648 48.125 308.609 54.7656 300.797 58.5156L292.984 48.5156ZM401.578 65.8594C389.469 65.8594 382.125 58.75 382.125 50C382.125 43.5938 386.07 39.7266 391.969 35.7031C389.469 32.2656 387.281 28.0469 387.281 23.125C387.281 14.5312 393.844 7.57812 403.688 7.57812C413.141 7.57812 418.961 14.0234 419 21.7969C418.961 27.0703 416.305 31.6797 411.5 35.0781L408.688 37.1094L416.188 45.4297C417.75 42.6562 418.688 39.4141 418.688 35.7812H430.484C430.445 43.1641 428.766 50.0391 424.938 55.1172L433.844 65H419L415.992 61.7969C411.539 64.7656 406.383 65.8594 401.578 65.8594ZM396.266 48.9062C396.266 52.2656 398.727 54.2969 402.672 54.2969C404.391 54.2969 406.148 53.9062 407.867 53.1641L399.156 43.8672C397.477 45.1562 396.266 46.6797 396.266 48.9062ZM399.312 23.2812C399.352 25.2344 400.406 27.1875 402.125 29.4141L404.547 27.8906C407.125 26.25 407.945 24.3359 407.984 22.8125C407.945 20.9766 406.578 19.2188 403.688 19.2188C401.031 19.2578 399.352 20.8594 399.312 23.2812ZM513.531 0.46875V72.9688H500.875V0.46875H513.531ZM456.734 56.1719V6.5625H492.281V16.6406H469.234V45.7031C481.266 45.625 488.492 45.3516 496.578 43.9062L497.594 54.0625C488.492 55.9766 479.469 56.2109 463.219 56.1719H456.734ZM549.781 18.5938C549.703 29.2969 553.961 41.9531 566.734 47.7344L559.859 57.5C552.047 54.0625 546.812 47.5391 543.648 39.7656C540.523 48.4375 535.133 55.6641 526.891 59.375L519.703 49.5312C532.75 43.5547 537.047 30.3125 537.047 18.5938V17.3438H522.75V7.1875H563.219V17.3438H549.781V18.5938ZM566.734 72.7344V0.46875H579.312V27.0312H589.078V37.4219H579.312V72.7344H566.734ZM651.812 0.46875V72.9688H639.156V0.46875H651.812ZM592.516 31.3281C592.477 15.3516 600.836 5.27344 612.125 5.3125C623.141 5.27344 631.422 15.3516 631.422 31.3281C631.422 47.5391 623.141 57.5781 612.125 57.5781C600.836 57.5781 592.477 47.5391 592.516 31.3281ZM604.625 31.3281C604.586 41.4844 607.516 46.1328 612.125 46.0938C616.461 46.1328 619.352 41.4844 619.391 31.3281C619.352 21.3281 616.461 16.6016 612.125 16.6406C607.516 16.6016 604.586 21.3281 604.625 31.3281ZM721.656 0.46875V72.9688H709.156V31.9531H691.188V21.9531H709.156V0.46875H721.656ZM663.531 56.25V8.04688H676.031V45.8984C684.312 45.625 693.297 44.8047 702.359 43.0469L703.609 53.2812C691.891 55.7422 680.211 56.2891 669.938 56.25H663.531ZM746.422 58.9062L739.156 81.7969H729.234L732.828 58.9062H746.422ZM824.625 0.625V21.7188H833.609V31.875H824.625V54.4531H812.047V0.625H824.625ZM766.734 17.1094V7.42188H781.812V0.46875H794.391V7.42188H809.469V17.1094H766.734ZM769.859 33.0469C769.82 24.5703 777.477 18.75 788.062 18.75C798.648 18.75 806.109 24.5703 806.109 33.0469C806.109 41.4844 798.648 47.1875 788.062 47.1094C777.477 47.1875 769.82 41.4844 769.859 33.0469ZM776.734 71.7188V50.3906H789.312V61.7188H826.734V71.7188H776.734ZM782.125 33.0469C782.086 36.3281 784.469 37.7344 788.062 37.7344C791.734 37.7344 794.195 36.3281 794.234 33.0469C794.195 29.7656 791.734 28.2422 788.062 28.2031C784.469 28.2422 782.086 29.7656 782.125 33.0469ZM863.688 11.7188C863.648 19.7656 867.242 27.7734 879.312 31.25L872.672 40.9375C865.367 38.7109 860.445 34.4141 857.438 28.9062C854.312 35.3516 849.078 40.4297 841.109 42.9688L834.391 33.2031C847.164 29.1797 850.992 19.6094 851.031 10.3906V4.45312H863.688V11.7188ZM844.547 58.3594C844.508 49.2578 854.312 43.8672 869.781 43.9062C884.82 43.8672 894.469 49.2578 894.469 58.3594C894.469 67.5391 884.82 72.8906 869.781 72.8906C854.312 72.8906 844.508 67.5391 844.547 58.3594ZM857.047 58.3594C857.047 61.7969 861.227 63.0859 869.781 63.125C878.141 63.0859 882.086 61.7969 882.047 58.3594C882.086 55.0781 878.141 53.5547 869.781 53.5938C861.227 53.5547 857.047 55.0781 857.047 58.3594ZM881.188 42.6562V0.46875H893.766V16.1719H902.75V26.4844H893.766V42.6562H881.188ZM947.75 5.15625V15.0781H934.586C934.938 22.6953 939 30.9375 951.031 34.4531L944.625 44.2188C936.852 41.875 931.617 37.2266 928.414 31.3672C925.133 37.7734 919.586 42.9297 911.344 45.4688L904.938 35.7031C917.164 32.0312 921.5 23.2422 921.852 15.0781H908.219V5.15625H947.75ZM916.578 71.7188V47.8125H929.234V61.7188H967.75V71.7188H916.578ZM953.453 52.3438V0.625H966.031V52.3438H953.453ZM1035.17 0.46875V39.375H1022.59V0.46875H1035.17ZM975.016 20.7031C974.938 10.4297 983.766 3.20312 995.25 3.20312C1006.66 3.20312 1015.52 10.4297 1015.48 20.7031C1015.52 30.5859 1006.66 37.8125 995.25 37.8125C983.766 37.8125 974.938 30.5859 975.016 20.7031ZM985.953 72.1094V42.2656H998.297V47.6562H1022.67V42.2656H1035.17V72.1094H985.953ZM987.203 20.7031C987.164 25.3125 990.523 27.5781 995.25 27.5781C999.781 27.5781 1003.06 25.3125 1003.06 20.7031C1003.06 16.0547 999.781 13.5938 995.25 13.5938C990.523 13.5938 987.164 16.0547 987.203 20.7031ZM998.297 62.0312H1022.67V57.2656H998.297V62.0312ZM1104.86 0.46875V72.7344H1092.36V0.46875H1104.86ZM1046.73 55.4688V7.26562H1059.16V44.7656C1068.14 44.5312 1077.95 43.6328 1087.59 41.875L1089.16 52.1094C1076.58 54.7266 1064.27 55.4688 1053.45 55.4688H1046.73ZM1170.17 0.46875V26.25H1179.94V36.4062H1170.17V72.9688H1157.59V0.46875H1170.17ZM1115.25 55.7812V6.95312H1149.16V17.0312H1127.67V45.5078C1136.7 45.3906 1144.82 44.8438 1153.53 43.4375L1154.86 53.75C1143.73 55.5859 1133.65 55.8203 1121.5 55.7812H1115.25ZM1192.05 65.8594C1187.87 65.8594 1184.43 62.5 1184.47 58.2812C1184.43 54.1406 1187.87 50.7812 1192.05 50.7812C1196.03 50.7812 1199.59 54.1406 1199.62 58.2812C1199.59 62.5 1196.03 65.8594 1192.05 65.8594ZM1207.91 8.4375V31.0938H1198.22V8.4375H1207.91ZM1212.59 31.0938V8.4375H1222.28V31.0938H1212.59Z" fill="#2B2B2B"/>
</svg>
